<svg width="144" height="160" viewBox="0 0 144 160" fill="none" xmlns="http://www.w3.org/2000/svg">
<path fill-rule="evenodd" clip-rule="evenodd" d="M70.2845 0.351815L68.8202 0.693856L70.1835 0.653853C71.9104 0.603143 72.3596 0.694563 72.9539 1.21783C73.8333 1.99212 73.918 3.22179 73.1535 4.11517C72.6172 4.74198 72.285 4.81723 69.5271 4.93653C61.8713 5.26777 55.4361 6.88362 49.179 10.0459C44.4405 12.4407 40.4367 15.5 36.7482 19.5442C35.6153 20.7864 35.2523 21.1211 34.8874 21.2605C33.9559 21.6164 32.874 21.233 32.3821 20.3726C31.7697 19.3016 31.9499 18.6249 33.238 17.1586C37.2378 12.6056 42.3781 8.69322 47.9167 5.9867C48.7498 5.5796 49.3945 5.24575 49.3493 5.24484C49.1171 5.24019 24.7767 11.4314 23.7059 11.7675C23.5687 11.8105 23.5291 11.9352 23.5291 12.3245C23.5291 12.9933 23.3816 13.3094 22.5671 14.3852C19.1071 18.955 15.8838 25.3106 13.9061 31.4624C11.7998 38.0146 10.6396 44.4414 9.99575 53.1249C9.55031 59.1325 8.76748 64.1483 7.62405 68.3215C7.21032 69.8314 6.96544 70.2244 6.2426 70.5383C5.76272 70.7467 5.75151 70.7614 5.81079 71.1058C6.11576 72.8775 8.39425 83.4552 9.1181 86.4602L9.34925 87.4199L10.0744 86.3416C10.9356 85.0609 12.1161 83.0249 12.8744 81.5125C13.4908 80.2829 13.8885 79.8732 14.6403 79.6927C15.909 79.3883 17.1725 80.4022 17.1828 81.733C17.1861 82.1581 17.0831 82.4554 16.5685 83.5061C15.4547 85.7799 13.8426 88.4139 12.1672 90.6972C11.5518 91.536 11.3769 91.6929 10.5312 92.1652C10.481 92.1932 11.3686 95.1311 11.9207 96.7639C12.7295 99.1561 13.2701 100.555 13.38 100.539C13.6664 100.498 16.4078 95.5546 17.8642 92.4524C22.1765 83.2668 26.9489 69.2493 29.9937 56.8251C30.8735 53.2353 31.7106 51.19 32.7874 49.9998C33.1942 49.5501 33.3334 49.3282 33.2669 49.2357C32.3497 47.9594 30.9808 45.7919 30.5704 44.9657L30.0426 43.9033L30.0564 42.933C30.0669 42.2031 30.1357 41.7498 30.334 41.104C30.4791 40.6317 30.7151 39.8032 30.8585 39.2626L31.1192 38.2801L30.8347 37.3433C30.2948 35.5659 30.4987 33.9326 31.3233 33.4298C32.2293 32.8772 33.3281 33.4701 34.1618 34.9615C34.3663 35.3273 34.7329 35.8467 34.9765 36.1159L35.4193 36.6052L35.8311 35.7862C38.4908 30.4944 42.6385 25.6541 47.4699 22.2035C51.8999 19.0397 57.3924 16.7472 63.0416 15.7043C65.9865 15.1605 66.7537 15.0993 70.6379 15.0982C73.8549 15.0971 74.4666 15.1233 75.9526 15.3254C84.613 16.5036 91.6215 19.9086 97.5031 25.7957C100.559 28.8543 102.831 31.9837 105.111 36.2727C105.672 37.3277 105.794 37.4871 106.264 37.7876C107.188 38.3774 108.679 39.6355 109.673 40.6627C110.695 41.7186 111.861 43.1506 113.653 45.5487C114.919 47.2434 115.545 47.9927 116.692 49.1853C118.554 51.1202 119.167 52.8014 118.517 54.1856C118.206 54.8489 118.035 54.9848 117.191 55.237C115.665 55.6936 113.65 55.6916 111.641 55.2317C110.378 54.9428 110.33 54.9436 110.294 55.2539C110.265 55.5016 110.314 55.5296 111.304 55.833C113.154 56.4004 114.132 56.4835 115.677 56.2044C116.121 56.1241 116.519 56.0574 116.56 56.0564C116.804 56.0499 116.386 57.6754 115.866 58.7609C115.639 59.236 115.278 59.7471 114.851 60.2001C113.937 61.1692 112.881 61.6871 111.057 62.0621L110.779 62.1192L110.778 67.6984C110.777 73.0076 110.704 75.8226 110.473 79.4396C108.95 103.289 102.734 124.587 92.1202 142.322C91.0418 144.124 88.219 148.428 87.2172 149.797C86.9124 150.214 86.6763 150.569 86.6927 150.586C86.7091 150.603 87.4205 150.13 88.2736 149.535C95.9524 144.178 101.884 139.347 108.195 133.312L109.499 132.065L109.213 131.631C108.685 130.833 108.727 130.446 109.592 128.18C110.006 127.097 110.473 125.846 110.631 125.402C110.981 124.415 111.507 123.819 112.192 123.634C113.539 123.271 114.865 124.276 114.865 125.66V126.224L115.517 125.459C123.473 116.119 129.487 105.36 132.735 94.6557C133.357 92.607 134.04 89.9536 134.909 86.2077C135.244 84.7632 135.54 83.4876 135.567 83.3732C135.605 83.2085 135.542 83.1386 135.262 83.0376C134.763 82.857 134.23 82.2672 134.066 81.7148C133.957 81.3504 133.945 80.963 134.011 79.9887C134.574 71.6276 134.396 56.8594 133.645 49.6903C132.509 38.8313 128.617 28.2039 122.417 19.0319C121.249 17.3051 119.764 15.3256 118.639 13.9977C117.383 12.5148 117.316 12.4013 117.249 11.6302L117.191 10.9579L113.758 10.0657C108.656 8.74 92.7467 4.73784 92.5879 4.74016C92.5123 4.74127 93.3138 5.16605 94.3691 5.68406C98.2071 7.56801 101.088 9.44368 104.467 12.2577C106.004 13.5373 108.903 16.4322 110.29 18.0723C111.668 19.702 113.585 22.2517 113.821 22.7695C114.445 24.1343 113.42 25.6835 111.89 25.6905C110.977 25.6948 110.619 25.42 109.468 23.8317C104.935 17.5791 99.1022 12.6406 92.4504 9.42418C89.571 8.03187 87.0922 7.14333 83.7304 6.29854C81.3487 5.70012 81.0578 5.55738 80.6961 4.80996C80.3066 4.00517 80.4688 3.00652 81.094 2.36032L81.391 2.05333L78.5895 1.42451C74.3441 0.47152 72.0818 -0.010631 71.9067 0.000177775C71.8199 0.00553163 71.0898 0.163824 70.2845 0.351815ZM123.017 12.6932C123.09 12.7903 123.575 13.4382 124.095 14.1326C131.659 24.2277 136.656 37.092 137.889 49.6398C138.211 52.9167 138.334 55.6153 138.628 65.8024L138.701 68.3278L139.233 65.3976C141.275 54.1484 142.743 43.0215 143.442 33.4772C143.528 32.3105 143.618 31.1485 143.642 30.8952L143.685 30.4344L143.239 30.3149C142.379 30.0847 142.109 29.7138 141.116 27.3934C140.033 24.864 138.397 21.5189 137.002 18.9814C136.034 17.2217 135.974 17.0787 135.974 16.5309C135.974 16.1026 135.934 15.9364 135.823 15.9009C135.277 15.727 123.136 12.5164 123.025 12.5164C122.909 12.5164 122.908 12.5465 123.017 12.6932ZM16.5613 13.638C15.7559 13.8576 13.1657 14.5577 10.8052 15.194C8.44474 15.8302 6.34823 16.3979 6.14646 16.4554C5.78171 16.5595 5.77908 16.5641 5.73707 17.1899C5.6989 17.7586 5.59499 18.0061 4.66725 19.739C4.10205 20.7947 3.23167 22.522 2.73322 23.5777C2.23466 24.6333 1.68743 25.6445 1.51717 25.8249C1.19898 26.1617 0.6264 26.4566 0.29063 26.4566C0.186314 26.4566 0.100983 26.5189 0.100983 26.5951C0.100983 26.6713 0.169651 27.9327 0.253568 29.3983C0.658108 36.4626 1.50778 44.6333 2.68424 52.7713C3.18916 56.2641 4.35249 63.4521 4.40439 63.4002C4.48781 63.3167 4.7749 61.7066 5.04614 59.8021C5.39121 57.3782 5.59479 55.4197 5.80857 52.4683C6.52262 42.6059 8.16997 34.5825 11.0559 26.9112C12.6598 22.6476 14.9633 18.0928 17.263 14.6377C18.2182 13.2027 18.2067 13.2218 18.1072 13.2312C18.0623 13.2354 17.3666 13.4185 16.5613 13.638ZM140.973 17.4437C140.973 17.4869 141.05 17.6328 141.145 17.7678C141.239 17.9029 141.92 19.2198 142.657 20.6945L143.997 23.3756L144 20.8373C144.002 18.9233 143.971 18.2751 143.876 18.2019C143.764 18.1152 141.226 17.3652 141.046 17.3652C141.006 17.3652 140.973 17.4005 140.973 17.4437ZM0.277705 18.0886C0.0131279 18.1853 0 18.2216 0 18.8552C0 19.2209 0.0173687 19.5012 0.0386762 19.4781C0.0598828 19.455 0.242258 19.1065 0.443821 18.7036C0.819581 17.9529 0.804333 17.8963 0.277705 18.0886ZM66.4674 19.4371C59.5285 20.2241 53.5226 22.6492 48.4216 26.7235C47.0302 27.8348 44.6253 30.2259 43.5478 31.5695C42.5447 32.82 41.2196 34.7552 40.4508 36.0923C39.8205 37.1886 38.9796 38.8288 38.9796 38.962C38.9796 39.0085 39.2588 39.1799 39.6002 39.3428C40.146 39.6036 40.3314 39.6392 41.1402 39.6391C42.2435 39.6391 42.6252 39.4864 44.2971 38.3765C46.239 37.0874 49.1082 35.8219 50.9403 35.4467C51.5022 35.3315 51.5968 35.2671 52.4297 34.434C55.9455 30.917 60.4416 28.7803 66.0636 27.9546C67.3703 27.7627 68.0443 27.7271 70.436 27.7241C73.3275 27.7203 74.1659 27.7862 76.3147 28.1858C77.7357 28.4502 78.2177 28.7262 78.6008 29.4953C79.0147 30.3262 78.9152 31.079 78.2954 31.8033C77.6536 32.5535 77.1295 32.6312 75.1529 32.2697C72.8998 31.8577 68.7541 31.8058 66.4471 32.1608C63.3995 32.6297 60.4841 33.6626 58.3684 35.0227L57.813 35.3798L58.8283 35.6982C59.3867 35.8733 60.2445 36.2108 60.7346 36.4481L61.6257 36.8796L62.3955 36.6277C63.7237 36.1933 64.3034 36.1082 65.9422 36.1072C67.0668 36.1066 67.7491 36.1575 68.3658 36.2881C69.5645 36.5419 71.1802 37.0926 72.2567 37.6144L73.1687 38.0564L74.3774 37.7678C75.0422 37.6091 76.1087 37.2967 76.7474 37.0736C79.161 36.2306 83.5302 35.5559 89.6733 35.0773C92.6118 34.8484 97.5215 34.8385 98.7366 35.0592C99.3055 35.1624 99.5689 35.1758 99.5671 35.1015C99.5656 35.0415 99.1867 34.4546 98.725 33.7972C94.6072 27.9333 89.7015 23.9528 83.6566 21.5709C81.2597 20.6264 78.6053 19.955 75.5861 19.5298C73.9188 19.295 68.2301 19.2372 66.4674 19.4371ZM26.659 28.3693C25.7679 28.6405 25.4573 28.9979 24.8064 30.5019C21.7145 37.646 20.0172 44.9935 19.2881 54.391C18.8136 60.5082 18.2686 64.4462 17.3142 68.6542C16.9261 70.3651 16.923 70.3942 17.0723 70.9317C17.3018 71.7585 18.1914 72.419 19.0753 72.419C19.7027 72.419 19.975 72.3168 20.4431 71.9057C20.9619 71.4499 21.0539 71.2281 21.4545 69.4658C22.4012 65.3012 23.0736 60.4924 23.4784 54.9937C24.1252 46.2074 25.7657 38.8513 28.4458 32.7196C29.1837 31.0315 29.309 30.6264 29.2377 30.1584C29.0509 28.9313 27.7585 28.0347 26.659 28.3693ZM116.779 31.4447C115.931 31.717 115.381 32.3687 115.261 33.244C115.208 33.6357 115.296 33.9345 116.007 35.7548C117.585 39.794 118.558 43.2539 119.206 47.1325C119.774 50.5334 119.954 53.6036 120.053 61.6103L120.12 67.0146L120.403 67.4967C120.997 68.5071 122.098 68.8467 123.135 68.3391C123.492 68.1648 123.779 67.9284 123.969 67.6529L124.26 67.2328L124.254 62.0224C124.245 55.0535 124.045 50.9394 123.546 47.468C123.298 45.743 122.632 42.589 122.139 40.8009C121.269 37.647 119.634 33.1406 119.025 32.2209C118.586 31.5565 117.548 31.1979 116.779 31.4447ZM101.286 52.8152C101.078 52.8765 101.13 52.9024 101.589 52.9643C102.242 53.0524 104.137 53.5205 105.25 53.8684L106.033 54.1131V53.7272C106.033 53.3443 106.028 53.34 105.452 53.1722C104.314 52.8409 103.545 52.7245 102.549 52.7326C101.993 52.7372 101.425 52.7744 101.286 52.8152ZM100.983 62.011C100.111 62.0857 98.9435 62.2598 98.5599 62.3722C98.4287 62.4107 98.4052 63.0146 98.3842 66.8874C98.3691 69.6761 98.3177 71.5636 98.2476 71.9038C98.0933 72.6534 97.4085 73.3561 96.6797 73.5125C95.7958 73.7021 94.9985 73.384 94.4715 72.6313L94.1671 72.1966L94.2009 68.1662C94.2262 65.1586 94.2051 64.1357 94.1177 64.1357C94.0534 64.1357 93.4019 64.4849 92.6701 64.9118C91.5675 65.5549 85.5319 69.1688 85.461 69.2283C85.4491 69.2383 85.5078 69.4715 85.5912 69.7468C85.7207 70.174 85.7271 70.5349 85.6348 72.2169C83.9431 103.052 76.7872 123.586 62.1017 139.746C59.9399 142.125 55.7717 146.111 53.7232 147.759C53.5844 147.87 53.4935 147.981 53.5212 148.005C53.6801 148.143 56.915 150.381 58.7835 151.647L60.9657 153.125L62.7249 151.335C69.9466 143.986 75.1774 136.866 80.1061 127.675C80.8945 126.205 81.1245 125.857 81.4723 125.613C82.2921 125.035 83.5644 125.175 84.2129 125.914C84.6083 126.365 84.8509 127.192 84.7346 127.694C84.5458 128.509 82.003 133.098 79.8126 136.578C75.976 142.673 71.8509 147.915 66.53 153.455L64.6181 155.446L65.4569 155.986C67.5826 157.355 71.8892 160 71.9916 160C72.0895 160 78.9823 155.753 79.1986 155.56C79.2415 155.521 79.2075 155.324 79.1229 155.122C78.931 154.663 78.9257 154.036 79.1099 153.595C79.1873 153.41 79.8707 152.481 80.6285 151.531C95.2654 133.175 103.955 109.335 106.078 81.7125C106.469 76.6237 106.655 70.3482 106.564 65.286L106.508 62.1431L105.488 62.0795C103.473 61.9536 101.926 61.9301 100.983 62.011ZM81.0392 71.9566C80.9282 72.0298 80.1578 72.532 79.3272 73.0727C78.4966 73.6132 77.2696 74.4685 76.6006 74.9733C75.4558 75.837 72.5203 78.1546 72.2153 78.4356C72.0976 78.5441 72.1114 78.6372 72.3052 79.0377C72.5051 79.4508 72.5265 79.61 72.4725 80.2836C72.3641 81.6358 71.6001 85.9578 71.4008 86.3466C70.6871 87.7385 68.7241 87.8677 67.819 86.5823C67.4038 85.9927 67.3822 85.4152 67.707 83.5962C67.8543 82.771 67.9518 82.0727 67.9235 82.0445C67.8181 81.9391 65.4529 84.0527 64.6595 84.9614C62.2851 87.6807 60.0982 91.1397 57.517 96.2588C55.1365 100.98 53.0359 105.888 52.4164 108.179C50.3097 115.966 47.9173 123.267 45.586 129.023C45.2294 129.903 44.9376 130.646 44.9376 130.674C44.9376 130.701 45.1762 130.509 45.4678 130.245C46.1098 129.666 46.4948 129.492 47.1308 129.495C48.1087 129.5 48.9534 130.169 49.1813 131.119C49.2765 131.516 49.2686 131.703 49.138 132.152C48.9993 132.629 48.8603 132.814 48.0776 133.559C47.0074 134.578 44.5007 136.782 43.5558 137.535C42.7918 138.144 42.2539 138.315 41.5765 138.163C41.3423 138.111 41.0372 138 40.8983 137.917C39.9632 137.357 45.1946 141.725 48.5639 144.318L50.0189 145.438L50.6845 144.852C51.0506 144.529 51.9181 143.774 52.6124 143.174C54.4426 141.591 58.9126 137.076 60.4926 135.215C73.0826 120.384 79.3733 102.081 81.2419 74.8434C81.4606 71.6547 81.4623 71.6777 81.0392 71.9566ZM121.231 75.4704C120.742 75.6414 120.285 76.0368 120.054 76.4893C119.868 76.8536 119.813 77.285 119.652 79.6402C118.834 91.6099 117.289 101.663 114.663 112.1C113.774 115.632 113.76 115.751 114.122 116.475C114.812 117.856 116.833 117.949 117.718 116.64C117.951 116.295 118.877 112.825 119.71 109.173C121.774 100.123 123.194 90.1393 123.868 79.9244C124.071 76.8523 124.046 76.6608 123.363 76.0023C122.752 75.4143 121.958 75.2161 121.231 75.4704ZM95.0248 79.6855C94.5003 79.8451 94.1033 80.1164 93.8184 80.5098C93.4626 81.001 93.464 80.9944 93.2066 83.3287C91.97 94.5391 89.1581 106.427 85.5849 115.553C85.1424 116.683 85.095 117.318 85.4078 117.928C85.6646 118.429 85.9816 118.73 86.4653 118.932C87.2893 119.277 88.4068 119.009 88.9107 118.346C89.1907 117.977 89.9551 115.997 90.9827 112.977C94.0989 103.819 96.2097 94.238 97.3942 83.8745C97.6276 81.8328 97.6368 81.6 97.5018 81.1454C97.3112 80.5036 96.7382 79.934 96.0855 79.7375C95.5535 79.5773 95.4043 79.57 95.0248 79.6855ZM66.909 92.8777C65.8519 93.1462 65.6223 93.5008 64.9442 95.9123C62.4346 104.836 58.703 113.202 54.3456 119.673C52.3406 122.65 52.2554 122.841 52.5256 123.743C53.001 125.33 55.0253 125.755 56.1273 124.5C56.7197 123.825 59.3311 119.797 60.4875 117.775C63.189 113.051 65.6121 107.547 67.5573 101.716C68.4907 98.9179 69.4766 95.4119 69.4766 94.8906C69.4766 93.496 68.2527 92.5365 66.909 92.8777Z" fill="#FA5D40"/>
</svg>
